<?xml version="1.0" standalone="no"?>
<!DOCTYPE svg PUBLIC "-//W3C//DTD SVG 20010904//EN"
 "http://www.w3.org/TR/2001/REC-SVG-20010904/DTD/svg10.dtd">
<svg version="1.0" xmlns="http://www.w3.org/2000/svg"
 width="1125.000000pt" height="1104.000000pt" viewBox="0 0 1125.000000 1104.000000"
 preserveAspectRatio="xMidYMid meet">

<g transform="translate(0.000000,1104.000000) scale(0.100000,-0.100000)"
fill="#000000" stroke="none">
<path d="M4911 8211 c-7 -13 -8 -36 -1 -70 5 -28 7 -70 4 -94 -7 -53 14 -148
99 -437 74 -254 89 -338 141 -790 36 -309 39 -360 19 -367 -16 -6 -200 79
-232 107 -81 72 -202 150 -296 194 -44 20 -91 43 -105 50 -207 116 -261 139
-282 118 -24 -24 8 -58 85 -95 46 -22 102 -60 144 -98 37 -34 91 -79 120 -100
28 -21 54 -43 58 -49 3 -5 33 -28 65 -50 32 -22 84 -70 115 -107 51 -59 55
-68 39 -74 -11 -4 -215 -8 -455 -8 -506 -1 -501 0 -585 -87 -29 -29 -55 -50
-58 -47 -3 4 -6 22 -6 40 0 35 -15 73 -34 85 -6 4 -152 8 -323 8 -375 0 -353
8 -353 -122 0 -46 3 -93 6 -105 8 -28 51 -43 128 -43 35 0 67 -5 74 -12 13
-13 18 -291 6 -322 -5 -12 -20 -16 -60 -16 l-55 0 -157 162 c-86 89 -223 228
-303 310 l-145 148 -340 0 c-278 0 -344 -3 -360 -14 -17 -13 -19 -27 -19 -115
0 -129 5 -135 119 -139 l83 -4 7 -51 c8 -67 8 -158 0 -236 l-7 -61 -62 0
c-128 0 -150 -26 -143 -165 3 -63 9 -90 22 -103 15 -15 49 -17 313 -20 318 -3
347 0 364 45 13 34 11 167 -2 196 -16 35 -49 47 -130 47 l-69 0 2 173 3 172
48 3 47 3 208 -213 c114 -117 247 -255 297 -306 49 -52 102 -100 117 -108 35
-18 616 -21 667 -3 36 13 51 41 51 95 0 19 4 34 8 34 4 0 24 -16 43 -36 18
-19 49 -44 67 -56 74 -46 103 -48 695 -48 l558 0 15 -35 c19 -46 18 -78 -3
-104 -18 -21 -21 -21 -648 -23 -621 -3 -631 -3 -676 -24 -60 -28 -125 -93
-153 -153 -19 -41 -21 -66 -24 -251 -4 -260 5 -306 82 -384 36 -37 68 -59 109
-74 57 -22 66 -22 685 -22 696 -1 688 -1 771 65 25 20 49 34 55 32 6 -2 14
-19 17 -37 4 -19 15 -40 25 -47 15 -11 173 -12 839 -9 451 2 831 4 845 4 14 0
167 -1 341 -4 l317 -5 21 27 c18 22 21 40 21 114 0 73 -3 92 -21 114 -19 24
-26 26 -100 26 -96 0 -91 -11 -87 195 l3 150 51 3 52 3 143 -146 c79 -81 218
-223 309 -316 l165 -169 336 0 c408 0 379 -10 379 139 0 126 -7 134 -124 141
l-81 5 0 170 0 170 83 6 c112 8 116 13 120 138 4 97 3 98 -23 120 -27 20 -36
21 -332 21 l-304 0 -25 -25 c-25 -25 -26 -30 -22 -120 4 -120 9 -126 115 -133
43 -2 84 -9 91 -14 8 -8 12 -52 12 -158 0 -82 -3 -155 -6 -164 -5 -12 -20 -16
-57 -16 l-51 0 -310 315 -311 316 -323 -1 c-265 0 -328 -3 -352 -15 -25 -13
-32 -13 -57 0 -23 12 -82 15 -316 15 l-288 0 -67 71 c-37 39 -108 113 -159
163 -92 91 -113 124 -113 174 0 33 25 72 46 72 19 0 291 -107 321 -126 13 -8
56 -21 96 -28 40 -8 88 -23 107 -35 19 -11 67 -25 105 -31 39 -6 91 -17 118
-25 66 -19 62 -5 -21 79 -51 51 -98 85 -183 132 -63 35 -120 64 -127 64 -17 0
-209 97 -257 130 -22 15 -64 39 -93 54 -64 32 -94 60 -86 81 7 16 71 138 193
365 40 74 90 158 111 186 21 27 52 79 70 114 18 36 50 92 71 125 20 33 41 74
45 90 11 45 56 114 183 283 202 265 261 365 261 437 0 66 -120 -12 -209 -135
-65 -90 -227 -333 -244 -365 -15 -30 -256 -317 -276 -329 -6 -4 -37 -46 -70
-94 -58 -85 -100 -129 -209 -225 -60 -54 -91 -59 -127 -22 -22 21 -25 33 -25
92 0 57 -5 78 -32 130 l-32 63 18 92 c10 51 24 113 33 138 8 25 18 84 23 131
4 48 16 101 25 119 17 33 48 182 59 283 6 52 4 58 -11 55 -12 -2 -29 -43 -64
-154 -25 -83 -51 -160 -57 -171 -6 -11 -27 -63 -46 -114 -82 -221 -127 -331
-183 -439 -33 -63 -66 -134 -75 -157 -9 -24 -23 -43 -31 -43 -42 0 -187 252
-221 385 -8 33 -29 144 -46 247 -68 417 -138 705 -181 744 -33 29 -54 80 -89
204 -17 63 -35 122 -39 130 -12 23 -48 24 -60 1z m-2188 -2101 c100 -102 238
-243 307 -313 l124 -128 86 3 85 3 0 220 0 220 -100 5 -100 5 -3 81 c-3 78 -2
82 20 87 32 8 564 1 577 -7 15 -10 14 -139 -1 -154 -7 -7 -43 -12 -92 -12 -45
0 -87 -4 -94 -8 -9 -7 -12 -58 -10 -223 l3 -214 89 -3 c50 -2 96 -8 103 -14
17 -14 18 -149 1 -166 -9 -9 -95 -12 -322 -12 l-311 0 -159 162 c-87 90 -227
234 -312 321 l-153 158 -83 -3 -83 -3 0 -220 0 -220 80 -3 c130 -4 125 0 125
-90 0 -47 -5 -83 -12 -90 -17 -17 -569 -17 -586 0 -17 17 -16 152 1 166 7 6
53 12 103 14 l89 3 0 220 0 220 -89 3 c-50 2 -96 8 -103 14 -19 16 -18 144 2
155 8 5 155 9 325 8 l310 0 183 -185z m2513 175 c63 -18 125 -69 157 -129 20
-37 22 -58 25 -238 3 -160 0 -208 -13 -254 -22 -75 -79 -137 -152 -164 -54
-20 -70 -21 -657 -18 -587 3 -602 3 -646 24 -54 25 -94 64 -124 119 -20 38
-21 54 -21 265 0 212 1 227 22 266 39 72 109 123 187 136 11 2 278 4 593 6
502 3 581 1 629 -13z m-1493 -326 c-1 -63 -2 -125 -3 -139 0 -14 1 -43 2 -65
3 -36 1 -40 -19 -39 -13 0 -52 1 -88 2 l-65 2 2 173 3 172 75 6 c41 3 80 5 85
4 6 -1 9 -46 8 -116z m2028 -561 c40 -6 86 -7 115 -3 64 11 64 11 137 -35 104
-66 111 -71 96 -81 -21 -13 -646 -11 -654 2 -9 14 97 110 139 126 32 12 50 11
167 -9z m479 -199 c14 -11 60 -45 102 -77 42 -31 77 -63 77 -69 1 -10 -63 -13
-286 -13 -159 0 -294 -4 -301 -9 -9 -5 -12 -25 -10 -62 l3 -54 405 -5 405 -5
3 -78 c2 -50 -1 -84 -9 -93 -9 -12 -78 -14 -394 -14 -211 0 -390 -3 -399 -6
-12 -5 -16 -20 -16 -59 0 -39 4 -54 16 -59 20 -8 978 -8 998 0 12 4 16 20 16
54 0 64 12 71 107 68 l78 -3 0 -150 0 -150 -799 -3 c-546 -1 -803 1 -811 8
-14 11 -19 95 -9 143 l6 27 88 0 c124 0 120 -7 119 198 0 92 -3 185 -7 207
l-7 40 -90 3 c-70 2 -93 6 -102 19 -18 23 -17 137 0 152 10 7 131 12 383 13
203 2 378 2 389 0 11 -2 31 -12 45 -23z m-1150 5 c0 -9 -13 -33 -29 -53 -15
-20 -32 -47 -36 -61 -16 -52 8 -50 -554 -50 -404 0 -532 -3 -551 -13 l-25 -13
-3 -194 c-3 -189 -2 -196 19 -212 19 -16 54 -18 408 -18 213 0 390 -3 394 -6
3 -3 -5 -26 -19 -51 -13 -25 -24 -55 -24 -65 0 -11 -5 -28 -10 -39 -10 -18
-25 -19 -396 -19 l-386 0 -49 27 c-53 28 -90 71 -116 131 -22 50 -31 346 -13
435 14 74 28 101 72 146 72 73 43 71 716 71 546 0 602 -1 602 -16z m1945 -134
l0 -145 -70 -6 c-38 -4 -79 -3 -90 1 -11 4 -47 36 -80 70 -33 34 -83 77 -112
95 -68 44 -133 104 -133 121 0 12 40 14 243 12 l242 -3 0 -145z m1016 -132
c376 -387 330 -348 410 -348 107 0 99 -18 99 226 0 247 14 222 -125 226 l-80
3 0 85 0 85 299 3 c233 2 301 -1 308 -10 11 -19 10 -126 -2 -149 -9 -17 -22
-19 -101 -19 -87 0 -90 -1 -99 -26 -15 -38 -13 -397 2 -412 8 -8 46 -12 104
-12 75 0 93 -3 98 -16 11 -28 6 -140 -6 -152 -9 -9 -96 -12 -332 -12 l-320 0
-184 188 c-101 103 -239 244 -307 315 l-123 127 -68 0 c-38 0 -75 -4 -83 -9
-21 -13 -22 -418 -1 -431 8 -5 52 -10 97 -10 45 0 84 -3 86 -8 5 -7 11 -119 8
-154 -1 -17 -22 -18 -300 -18 -339 0 -311 -8 -311 90 0 90 0 90 95 90 46 0 90
3 99 6 14 5 16 34 16 219 0 185 -2 214 -16 219 -9 3 -50 6 -93 6 -47 0 -82 5
-89 12 -12 12 -17 124 -6 152 5 14 44 16 328 16 l322 0 275 -282z m-2686 262
c3 -5 2 -16 -2 -24 -11 -20 -38 -3 -30 18 7 18 23 21 32 6z m-25 -114 c22 -47
27 -106 8 -107 -7 0 -26 -3 -43 -5 -16 -3 -44 -3 -62 1 -41 7 -43 30 -6 88 57
89 69 92 103 23z m1942 -110 c10 -15 10 -308 0 -323 -6 -10 -111 -18 -179 -14
-8 1 -13 15 -13 34 0 42 -25 77 -55 77 -16 0 -36 16 -64 49 -23 27 -41 54 -41
60 0 7 23 11 60 11 74 0 100 20 100 78 0 21 2 41 6 44 9 10 179 -5 186 -16z
m-2344 -3 c-3 -16 -26 -18 -262 -23 -256 -5 -258 -5 -277 -29 -29 -35 -28
-177 2 -215 l20 -26 159 0 c166 0 190 -3 190 -26 0 -12 -67 -14 -414 -14 -368
0 -415 2 -420 16 -12 31 -7 309 6 322 9 9 135 12 506 12 465 0 493 -1 490 -17z
m636 1 c9 -24 7 -307 -3 -322 -5 -9 -29 -12 -82 -10 l-74 3 -5 135 c-3 74 -9
141 -13 148 -5 8 -2 23 7 37 15 23 23 25 90 25 58 0 75 -3 80 -16z m975 3 c6
-8 8 -17 4 -20 -11 -11 -671 -8 -678 3 -17 27 17 30 334 30 263 0 331 -3 340
-13z m-1642 -82 c1 -5 -18 -46 -45 -90 l-47 -80 -190 0 -190 0 -3 78 c-2 50 1
84 9 93 10 12 52 14 237 12 139 -2 227 -7 229 -13z m441 3 c8 -8 12 -60 12
-169 l0 -157 -32 -48 c-18 -27 -52 -62 -76 -79 l-44 -30 -219 -3 c-160 -2
-219 0 -219 8 0 13 64 124 89 153 12 15 32 17 143 17 124 0 130 1 153 25 27
26 33 73 13 93 -7 7 -43 12 -89 12 -43 0 -80 4 -83 8 -3 5 27 48 65 95 l71 87
102 0 c66 0 106 -4 114 -12z m1439 -95 c29 -18 53 -36 53 -39 0 -3 -7 -12 -15
-20 -8 -9 -15 -30 -15 -47 0 -18 -4 -38 -8 -45 -7 -10 -107 -12 -468 -10 -400
3 -459 5 -459 18 0 13 51 15 387 18 l388 2 14 23 c8 12 16 45 17 72 0 28 3 58
6 67 5 20 11 18 100 -39z m-1673 -129 c8 -3 12 -12 9 -20 -4 -11 -28 -14 -103
-14 -96 0 -131 11 -99 31 16 10 169 12 193 3z"/>
<path d="M4030 6113 c-36 -13 -40 -33 -40 -224 0 -157 3 -190 16 -203 14 -14
82 -16 604 -16 522 0 590 2 604 16 13 13 16 46 16 205 0 176 -1 190 -20 209
-20 20 -33 20 -592 19 -315 0 -580 -3 -588 -6z m635 -53 c7 -12 -66 -33 -230
-65 -71 -13 -182 -37 -247 -51 -64 -15 -123 -24 -132 -21 -12 5 -16 21 -16 70
0 35 3 67 7 70 10 11 611 8 618 -3z m-49 -253 c11 -7 40 -29 64 -49 l44 -38
-343 0 -342 0 3 28 c3 25 7 28 63 35 271 34 477 44 511 24z"/>
</g>
</svg>
